<svg width="1020" height="587" viewBox="0 0 1020 587" fill="none" xmlns="http://www.w3.org/2000/svg">
<path d="M521.617 245.394L575 300H510.236H445.473C317.6 264.952 352.852 82.0002 453.15 82.0002H554.309C583.277 82.0002 581.514 129.575 550.171 136.183H467.405C392.503 136.183 391.675 245.394 481.147 245.394H521.617Z" fill="#DA251D"/>
<path d="M421.581 55.9653C381.415 55.9653 364.458 79.664 361 91.5134V0H541.119C683.822 0 682.992 163.206 600.834 204.535L661 263.997L655.5 300H616.5L535.274 216.764H464.734C428.635 216.764 431.954 163.206 464.734 163.206H551.871C618.261 163.206 616.187 55.9653 551.871 55.9653H421.581Z" fill="#DA251D"/>
<path d="M111.518 385.552H139.294C145.523 385.552 151.241 385.723 156.446 386.064C161.651 386.405 165.662 387.045 168.478 387.984C176.841 390.629 182.857 395.195 186.526 401.68C190.195 408.165 192.03 416.997 192.03 428.176C192.03 433.211 191.646 437.947 190.878 442.384C190.11 446.821 188.787 450.875 186.91 454.544C185.118 458.128 182.643 461.285 179.486 464.016C176.414 466.661 172.574 468.709 167.966 470.16C164.382 471.355 160.201 472.293 155.422 472.976C150.643 473.659 144.627 474 137.374 474H111.518V385.552ZM144.158 449.808C147.486 449.808 150.131 449.595 152.094 449.168C154.142 448.741 155.849 448.016 157.214 446.992C159.006 445.541 160.158 443.152 160.67 439.824C161.267 436.496 161.566 432.955 161.566 429.2C161.566 427.408 161.481 425.616 161.31 423.824C161.139 422.032 160.798 420.325 160.286 418.704C159.859 417.083 159.219 415.632 158.366 414.352C157.513 413.072 156.446 412.133 155.166 411.536C153.886 410.853 152.393 410.427 150.686 410.256C149.065 410 146.974 409.872 144.414 409.872H141.086V449.808H144.158ZM302.373 429.84C302.373 437.776 301.349 444.645 299.301 450.448C297.338 456.165 294.48 460.901 290.725 464.656C286.97 468.325 282.405 471.056 277.029 472.848C271.653 474.64 265.552 475.536 258.725 475.536C244.048 475.536 232.912 471.867 225.317 464.528C217.808 457.104 214.053 445.328 214.053 429.2C214.053 413.755 217.978 402.363 225.829 395.024C233.68 387.6 244.688 383.888 258.853 383.888C287.866 383.888 302.373 399.205 302.373 429.84ZM271.141 430.096C271.141 425.317 270.885 421.435 270.373 418.448C269.861 415.376 269.05 412.987 267.941 411.28C266.832 409.573 265.466 408.421 263.845 407.824C262.224 407.227 260.304 406.928 258.085 406.928C256.122 406.928 254.288 407.227 252.581 407.824C250.96 408.421 249.552 409.573 248.357 411.28C247.248 412.901 246.352 415.205 245.669 418.192C245.072 421.093 244.773 424.848 244.773 429.456C244.773 434.235 245.029 438.117 245.541 441.104C246.138 444.091 246.949 446.437 247.973 448.144C249.082 449.851 250.49 451.045 252.197 451.728C253.904 452.325 255.909 452.624 258.213 452.624C260.517 452.624 262.48 452.325 264.101 451.728C265.722 451.045 267.045 449.893 268.069 448.272C269.093 446.565 269.861 444.261 270.373 441.36C270.885 438.459 271.141 434.704 271.141 430.096ZM356.669 385.552V437.904C356.669 439.611 356.754 441.317 356.925 443.024C357.096 444.645 357.394 446.053 357.821 447.248C358.504 448.699 359.528 449.979 360.893 451.088C362.344 452.112 364.605 452.624 367.677 452.624C370.578 452.624 372.797 452.24 374.333 451.472C375.954 450.619 377.106 449.595 377.789 448.4C378.472 447.205 378.898 445.669 379.069 443.792C379.325 441.915 379.453 439.952 379.453 437.904V385.552H408.125V436.752C408.125 438.971 407.997 441.317 407.741 443.792C407.485 446.267 407.144 448.485 406.717 450.448C404.84 458.555 400.786 464.784 394.557 469.136C388.413 473.403 379.496 475.536 367.805 475.536C356.114 475.536 347.112 473.531 340.797 469.52C334.568 465.424 330.472 459.493 328.509 451.728C328.082 449.765 327.741 447.504 327.485 444.944C327.229 442.299 327.101 439.781 327.101 437.392V385.552H356.669ZM435.973 385.552H468.101C472.026 385.552 476.037 385.637 480.133 385.808C484.314 385.893 488.453 386.32 492.549 387.088C498.181 388.112 502.49 390.288 505.477 393.616C508.549 396.944 510.085 401.637 510.085 407.696C510.085 413.584 508.89 418.021 506.501 421.008C504.197 423.995 500.528 426.299 495.493 427.92C501.381 428.688 505.904 430.779 509.061 434.192C512.304 437.52 513.925 442.384 513.925 448.784C513.925 455.013 512.474 460.048 509.573 463.888C506.672 467.728 502.405 470.416 496.773 471.952C495.408 472.293 493.701 472.592 491.653 472.848C489.69 473.104 487.514 473.317 485.125 473.488C482.736 473.659 480.261 473.787 477.701 473.872C475.141 473.957 472.666 474 470.277 474H435.973V385.552ZM474.373 418.32C474.97 418.32 475.61 418.32 476.293 418.32C476.976 418.32 477.658 418.235 478.341 418.064C479.365 417.893 480.048 417.509 480.389 416.912C480.816 416.229 481.029 415.419 481.029 414.48C481.029 413.541 480.816 412.816 480.389 412.304C480.048 411.707 479.365 411.323 478.341 411.152C477.744 410.981 477.018 410.896 476.165 410.896C475.312 410.896 474.672 410.896 474.245 410.896H465.285V418.32H474.373ZM474.629 448.656C475.312 448.656 476.08 448.656 476.933 448.656C477.872 448.656 478.725 448.571 479.493 448.4C480.688 448.144 481.498 447.675 481.925 446.992C482.437 446.224 482.693 445.371 482.693 444.432C482.693 443.493 482.437 442.725 481.925 442.128C481.498 441.445 480.688 440.976 479.493 440.72C478.81 440.549 477.957 440.464 476.933 440.464C475.909 440.464 475.141 440.464 474.629 440.464H465.285V448.656H474.629ZM539.083 474V385.552H568.651V449.68H604.107V474H539.083ZM628.568 474V385.552H696.152V409.872H658.136V416.656H692.952V440.976H658.136V449.808H698.456V474H628.568ZM771.824 474L759.28 448.4H756.848H752.496V474H722.928V385.552H762.224C767.771 385.552 772.507 385.936 776.432 386.704C780.443 387.472 783.557 388.453 785.776 389.648C790.299 392.123 793.712 395.536 796.016 399.888C798.405 404.155 799.6 409.659 799.6 416.4C799.6 423.312 798.619 428.816 796.656 432.912C794.693 437.008 791.408 440.293 786.8 442.768L803.952 474H771.824ZM760.56 425.232C761.584 425.232 762.608 425.147 763.632 424.976C764.741 424.805 765.637 424.464 766.32 423.952C767.941 422.843 768.752 420.752 768.752 417.68C768.752 416.571 768.667 415.547 768.496 414.608C768.325 413.584 767.941 412.731 767.344 412.048C766.149 410.597 764.187 409.872 761.456 409.872H752.496V425.232H760.56ZM883.513 465.168C882.233 468.325 879.758 470.843 876.089 472.72C872.505 474.597 867.726 475.536 861.753 475.536C855.78 475.536 850.361 474.512 845.497 472.464C840.718 470.331 836.622 467.344 833.209 463.504C829.881 459.664 827.278 455.013 825.401 449.552C823.609 444.091 822.713 438.032 822.713 431.376C822.713 422.16 823.993 414.523 826.553 408.464C829.113 402.32 832.484 397.456 836.665 393.872C840.846 390.203 845.582 387.643 850.873 386.192C856.249 384.656 861.668 383.888 867.129 383.888C880.697 383.888 890.894 386.576 897.721 391.952C904.548 397.328 908.217 405.904 908.729 417.68H880.313C880.228 416.144 879.972 414.736 879.545 413.456C879.204 412.091 878.606 410.939 877.753 410C876.9 408.976 875.705 408.208 874.169 407.696C872.718 407.184 870.756 406.928 868.281 406.928C865.209 406.928 862.692 407.483 860.729 408.592C858.852 409.701 857.358 411.323 856.249 413.456C855.225 415.504 854.5 418.021 854.073 421.008C853.646 423.995 853.433 427.408 853.433 431.248C853.433 434.405 853.646 437.349 854.073 440.08C854.5 442.725 855.268 444.987 856.377 446.864C857.486 448.741 859.022 450.235 860.985 451.344C863.033 452.368 865.593 452.88 868.665 452.88C871.14 452.88 873.102 452.667 874.553 452.24C876.004 451.728 877.113 451.131 877.881 450.448C878.734 449.765 879.332 448.997 879.673 448.144C880.014 447.291 880.228 446.437 880.313 445.584H868.409V422.8H908.857V474H883.513V465.168Z" fill="black"/>
<path d="M171.883 541.697C171.883 540.479 171.547 539.492 170.875 538.736C170.245 537.938 169.279 537.539 167.977 537.539H164.449L162.118 548.564H165.772C167.788 548.564 169.3 547.934 170.308 546.674C171.358 545.372 171.883 543.713 171.883 541.697ZM182.53 540.311C182.53 542.831 182.089 545.078 181.207 547.052C180.325 549.026 179.086 550.685 177.49 552.029C175.936 553.331 174.088 554.339 171.946 555.053C169.846 555.725 167.557 556.061 165.079 556.061H160.543L157.141 572H146.935L155.881 529.979H171.001C172.555 529.979 174.025 530.21 175.411 530.672C176.839 531.092 178.078 531.743 179.128 532.625C180.178 533.507 180.997 534.599 181.585 535.901C182.215 537.161 182.53 538.631 182.53 540.311ZM219.883 537.476L211.819 555.494H220.702L219.883 537.476ZM221.395 572L221.017 562.487H208.669L204.385 572H194.053L215.284 529.979H228.136L231.475 572H221.395ZM278.213 572H265.046H254.84L263.786 529.979H273.992L266.684 564.251H279.851L278.213 572ZM324.075 572H310.908H300.702L309.648 529.979H319.854L312.546 564.251H325.713L324.075 572ZM380.106 537.161H365.679L363.6 546.8H376.893L375.381 553.856H362.088L359.82 564.755H375.003L373.428 572H358.308H348.102L357.048 529.979H381.618L380.106 537.161ZM430.884 537.728H421.812L414.504 572H404.298L411.606 537.728H402.156L403.794 529.979H432.522L430.884 537.728ZM514.442 537.917C513.35 537.329 512.279 536.93 511.229 536.72C510.179 536.468 509.045 536.342 507.827 536.342C506.819 536.342 505.832 536.426 504.866 536.594C503.9 536.72 503.018 536.993 502.22 537.413C501.464 537.833 500.855 538.4 500.393 539.114C499.931 539.828 499.7 540.752 499.7 541.886C499.7 543.02 500.015 543.944 500.645 544.658C501.317 545.33 502.157 545.96 503.165 546.548C504.173 547.094 505.244 547.64 506.378 548.186C507.512 548.732 508.583 549.404 509.591 550.202C510.599 550.958 511.418 551.945 512.048 553.163C512.72 554.339 513.056 555.851 513.056 557.699C513.056 560.429 512.489 562.739 511.355 564.629C510.263 566.519 508.814 568.073 507.008 569.291C505.244 570.467 503.207 571.328 500.897 571.874C498.629 572.42 496.319 572.693 493.967 572.693C492.287 572.693 490.544 572.609 488.738 572.441C486.932 572.315 485.231 571.979 483.635 571.433L485.462 563.873C486.554 564.503 487.646 564.965 488.738 565.259C489.872 565.511 491.069 565.637 492.329 565.637C493.379 565.637 494.513 565.574 495.731 565.448C496.949 565.322 498.062 565.049 499.07 564.629C500.12 564.167 500.981 563.537 501.653 562.739C502.325 561.899 502.661 560.786 502.661 559.4C502.661 558.224 502.325 557.279 501.653 556.565C501.023 555.851 500.225 555.242 499.259 554.738C498.335 554.192 497.306 553.667 496.172 553.163C495.038 552.617 493.988 551.945 493.022 551.147C492.098 550.307 491.3 549.257 490.628 547.997C489.998 546.695 489.683 545.015 489.683 542.957C489.683 540.689 490.145 538.715 491.069 537.035C492.035 535.313 493.295 533.885 494.849 532.751C496.403 531.575 498.167 530.714 500.141 530.168C502.115 529.58 504.131 529.286 506.189 529.286C508.205 529.286 510.158 529.37 512.048 529.538C513.98 529.706 515.891 530.042 517.781 530.546L514.442 537.917ZM568.537 537.161H554.11L552.031 546.8H565.324L563.812 553.856H550.519L548.251 564.755H563.434L561.859 572H546.739H536.533L545.479 529.979H570.049L568.537 537.161ZM612.259 541.634C612.259 540.29 611.902 539.198 611.188 538.358C610.474 537.518 609.382 537.098 607.912 537.098H605.203L602.809 548.186H604.825C605.833 548.186 606.778 548.06 607.66 547.808C608.542 547.556 609.319 547.157 609.991 546.611C610.705 546.065 611.251 545.393 611.629 544.595C612.049 543.755 612.259 542.768 612.259 541.634ZM623.095 539.618C623.095 541.508 622.78 543.167 622.15 544.595C621.52 545.981 620.68 547.178 619.63 548.186C618.58 549.194 617.362 550.013 615.976 550.643C614.632 551.273 613.225 551.735 611.755 552.029C612.301 552.155 612.784 552.428 613.204 552.848C613.666 553.226 614.065 553.688 614.401 554.234C614.737 554.738 615.01 555.284 615.22 555.872C615.43 556.46 615.598 557.006 615.724 557.51L617.551 565.763C617.761 566.855 618.013 567.905 618.307 568.913C618.643 569.921 618.979 570.95 619.315 572H608.29C607.954 570.992 607.681 569.963 607.471 568.913C607.261 567.863 607.03 566.813 606.778 565.763L605.14 558.581C605.056 558.161 604.951 557.741 604.825 557.321C604.741 556.901 604.594 556.544 604.384 556.25C604.174 555.956 603.901 555.725 603.565 555.557C603.229 555.347 602.788 555.242 602.242 555.242H601.36L597.769 572H587.563L596.509 529.979H611.503C613.015 529.979 614.464 530.189 615.85 530.609C617.236 530.987 618.454 531.575 619.504 532.373C620.596 533.171 621.457 534.179 622.087 535.397C622.759 536.615 623.095 538.022 623.095 539.618ZM662.991 572H650.517L647.619 529.979H658.077L658.455 563.747L673.197 529.979H683.781L662.991 572ZM708.627 572H698.421L707.367 529.979H717.573L708.627 572ZM769.173 537.98C768.333 537.644 767.472 537.371 766.59 537.161C765.708 536.951 764.784 536.846 763.818 536.846C761.214 536.846 758.946 537.329 757.014 538.295C755.124 539.261 753.549 540.563 752.289 542.201C751.029 543.839 750.084 545.75 749.454 547.934C748.824 550.076 748.509 552.323 748.509 554.675C748.509 556.439 748.635 557.972 748.887 559.274C749.139 560.576 749.58 561.668 750.21 562.55C750.882 563.39 751.806 564.041 752.982 564.503C754.2 564.923 755.754 565.133 757.644 565.133C759.828 565.133 761.991 564.734 764.133 563.936L762.558 571.685C761.088 572.063 759.597 572.315 758.085 572.441C756.615 572.609 755.124 572.693 753.612 572.693C748.068 572.693 744.099 571.244 741.705 568.346C739.311 565.448 738.114 561.332 738.114 555.998C738.114 552.218 738.702 548.711 739.878 545.477C741.054 542.201 742.713 539.366 744.855 536.972C747.039 534.578 749.685 532.709 752.793 531.365C755.943 529.979 759.471 529.286 763.377 529.286C764.931 529.286 766.464 529.37 767.976 529.538C769.53 529.664 771.042 529.958 772.512 530.42L769.173 537.98ZM820.734 537.161H806.307L804.228 546.8H817.521L816.009 553.856H802.716L800.448 564.755H815.631L814.056 572H798.936H788.73L797.676 529.979H822.246L820.734 537.161ZM869.622 537.917C868.53 537.329 867.459 536.93 866.409 536.72C865.359 536.468 864.225 536.342 863.007 536.342C861.999 536.342 861.012 536.426 860.046 536.594C859.08 536.72 858.198 536.993 857.4 537.413C856.644 537.833 856.035 538.4 855.573 539.114C855.111 539.828 854.88 540.752 854.88 541.886C854.88 543.02 855.195 543.944 855.825 544.658C856.497 545.33 857.337 545.96 858.345 546.548C859.353 547.094 860.424 547.64 861.558 548.186C862.692 548.732 863.763 549.404 864.771 550.202C865.779 550.958 866.598 551.945 867.228 553.163C867.9 554.339 868.236 555.851 868.236 557.699C868.236 560.429 867.669 562.739 866.535 564.629C865.443 566.519 863.994 568.073 862.188 569.291C860.424 570.467 858.387 571.328 856.077 571.874C853.809 572.42 851.499 572.693 849.147 572.693C847.467 572.693 845.724 572.609 843.918 572.441C842.112 572.315 840.411 571.979 838.815 571.433L840.642 563.873C841.734 564.503 842.826 564.965 843.918 565.259C845.052 565.511 846.249 565.637 847.509 565.637C848.559 565.637 849.693 565.574 850.911 565.448C852.129 565.322 853.242 565.049 854.25 564.629C855.3 564.167 856.161 563.537 856.833 562.739C857.505 561.899 857.841 560.786 857.841 559.4C857.841 558.224 857.505 557.279 856.833 556.565C856.203 555.851 855.405 555.242 854.439 554.738C853.515 554.192 852.486 553.667 851.352 553.163C850.218 552.617 849.168 551.945 848.202 551.147C847.278 550.307 846.48 549.257 845.808 547.997C845.178 546.695 844.863 545.015 844.863 542.957C844.863 540.689 845.325 538.715 846.249 537.035C847.215 535.313 848.475 533.885 850.029 532.751C851.583 531.575 853.347 530.714 855.321 530.168C857.295 529.58 859.311 529.286 861.369 529.286C863.385 529.286 865.338 529.37 867.228 529.538C869.16 529.706 871.071 530.042 872.961 530.546L869.622 537.917Z" fill="black"/>
</svg>
