<svg width="300" height="300" viewBox="0 0 300 300" fill="none" xmlns="http://www.w3.org/2000/svg">
<path d="M160.617 245.394L214 300H149.236H84.4726C-43.3999 264.952 -8.1479 82.0002 92.1503 82.0002H193.309C222.277 82.0002 220.514 129.575 189.171 136.183H106.405C31.5029 136.183 30.6752 245.394 120.147 245.394H160.617Z" fill="#DA251D"/>
<path d="M60.5809 55.9653C20.4149 55.9653 3.45781 79.664 0 91.5134V0H180.119C322.822 0 321.992 163.206 239.834 204.535L300 263.997L294.5 300H255.5L174.274 216.764H103.734C67.6349 216.764 70.9544 163.206 103.734 163.206H190.871C257.261 163.206 255.187 55.9653 190.871 55.9653H60.5809Z" fill="#DA251D"/>
</svg>
